<?xml version="1.0" encoding="UTF-8" standalone="no"?>
<svg
   height="24"
   viewBox="0 0 24 24"
   width="24"
   version="1.1"
   id="svg26"
   sodipodi:docname="show_vertex_numbers.svg"
   inkscape:version="1.1-dev (ad50a96bda, 2021-01-04)"
   xmlns:inkscape="http://www.inkscape.org/namespaces/inkscape"
   xmlns:sodipodi="http://sodipodi.sourceforge.net/DTD/sodipodi-0.dtd"
   xmlns="http://www.w3.org/2000/svg"
   xmlns:svg="http://www.w3.org/2000/svg">
  <defs
     id="defs30" />
  <sodipodi:namedview
     id="namedview28"
     pagecolor="#ffffff"
     bordercolor="#666666"
     borderopacity="1.0"
     objecttolerance="10.0"
     gridtolerance="10.0"
     guidetolerance="10.0"
     inkscape:pageshadow="2"
     inkscape:pageopacity="0.0"
     inkscape:pagecheckerboard="false"
     showgrid="true"
     inkscape:zoom="12.860505"
     inkscape:cx="14.773915"
     inkscape:cy="-5.2486277"
     inkscape:current-layer="svg26">
    <inkscape:grid
       type="xygrid"
       id="grid1253" />
  </sodipodi:namedview>
  <path
     d="M 2.5,6.4999997 9,19 21,8.9999997"
     fill="none"
     stroke="#8cbe8c"
     stroke-linecap="round"
     stroke-linejoin="round"
     stroke-width="2"
     id="path2"
     sodipodi:nodetypes="ccc" />
  <path
     d="m 1.5,5.4999997 h 3 v 3 h -3 z"
     id="path14"
     style="fill:#bebebe;stroke:#8c8c8c" />
  <path
     d="m 7.5,17.5 h 3 v 3 h -3 z"
     id="path16"
     style="fill:#bebebe;stroke:#8c8c8c" />
  <path
     d="m 19.5,7.4999997 h 3 V 10.5 h -3 z"
     id="path20"
     style="fill:#bebebe;stroke:#8c8c8c" />
  <g
     aria-label="1"
     id="text1895"
     style="font-weight:bold;font-size:8px;line-height:1.25;font-family:'IBM Plex Sans';-inkscape-font-specification:'IBM Plex Sans Bold';letter-spacing:0px;word-spacing:0px;fill:#d4aa00;stroke-width:0.999999">
    <path
       d="m 6.3004257,7.4665208 v -0.968 h 1.504 v -3.744 h -0.072 l -1.136,1.488 -0.768,-0.6 1.336,-1.76 h 1.84 v 4.616 h 1.1840003 v 0.968 z"
       id="path9053" />
  </g>
  <g
     aria-label="2"
     id="text1895-6"
     style="font-weight:bold;font-size:8px;line-height:1.25;font-family:'IBM Plex Sans';-inkscape-font-specification:'IBM Plex Sans Bold';letter-spacing:0px;word-spacing:0px;fill:#d4aa00;stroke-width:0.999999">
    <path
       d="m 17.080022,22.608139 h -3.952 v -1.096 l 1.72,-1.472 q 0.232,-0.2 0.392,-0.36 0.16,-0.168 0.256,-0.32 0.104,-0.16 0.144,-0.312 0.048,-0.152 0.048,-0.328 v -0.112 q 0,-0.16 -0.064,-0.28 -0.064,-0.12 -0.168,-0.2 -0.104,-0.08 -0.24,-0.12 -0.128,-0.04 -0.264,-0.04 -0.2,0 -0.352,0.064 -0.144,0.064 -0.256,0.176 -0.104,0.104 -0.176,0.248 -0.072,0.136 -0.112,0.296 l -1.048,-0.4 q 0.096,-0.288 0.264,-0.544 0.168,-0.264 0.416,-0.456 0.256,-0.2 0.6,-0.312 0.344,-0.112 0.776,-0.112 0.456,0 0.808,0.128 0.352,0.128 0.592,0.352 0.248,0.224 0.376,0.536 0.128,0.304 0.128,0.664 0,0.36 -0.12,0.656 -0.12,0.296 -0.328,0.56 -0.2,0.256 -0.472,0.488 -0.272,0.232 -0.568,0.472 l -1.04,0.816 h 2.64 z"
       id="path9059" />
  </g>
  <g
     aria-label="3"
     id="text1895-6-9"
     style="font-weight:bold;font-size:8px;line-height:1.25;font-family:'IBM Plex Sans';-inkscape-font-specification:'IBM Plex Sans Bold';letter-spacing:0px;word-spacing:0px;fill:#d4aa00;stroke-width:0.999999">
    <path
       d="m 20.846036,3.1461119 q 0.448,0 0.648,-0.168 0.208,-0.176 0.208,-0.432 v -0.056 q 0,-0.304 -0.2,-0.488 -0.192,-0.184 -0.552,-0.184 -0.336,0 -0.632,0.176 -0.296,0.168 -0.504,0.488 l -0.752,-0.704 q 0.16,-0.208 0.344,-0.376 0.184,-0.176 0.416,-0.296 0.232,-0.12800001 0.52,-0.19200001 0.288,-0.072 0.648,-0.072 0.448,0 0.808,0.104 0.368,0.10400001 0.624,0.30400001 0.264,0.192 0.4,0.464 0.144,0.272 0.144,0.608 0,0.264 -0.088,0.48 -0.08,0.216 -0.232,0.376 -0.144,0.16 -0.336,0.264 -0.192,0.096 -0.408,0.136 v 0.048 q 0.248,0.048 0.456,0.16 0.216,0.104 0.368,0.272 0.16,0.168 0.248,0.4 0.088,0.224 0.088,0.512 0,0.376 -0.152,0.68 -0.152,0.304 -0.432,0.52 -0.28,0.216 -0.672,0.336 -0.392,0.112 -0.864,0.112 -0.424,0 -0.752,-0.088 -0.328,-0.088 -0.576,-0.232 -0.24,-0.152 -0.424,-0.344 -0.176,-0.192 -0.312,-0.408 l 0.888,-0.688 q 0.184,0.344 0.448,0.568 0.272,0.216 0.728,0.216 0.408,0 0.632,-0.2 0.232,-0.208 0.232,-0.56 v -0.048 q 0,-0.344 -0.264,-0.512 -0.256,-0.176 -0.712,-0.176 h -0.504 v -1 z"
       id="path9056" />
  </g>
</svg>
